<?xml version="1.0" standalone="no"?><!DOCTYPE svg PUBLIC "-//W3C//DTD SVG 1.1//EN" "http://www.w3.org/Graphics/SVG/1.1/DTD/svg11.dtd"><svg t="1748746382745" class="icon" viewBox="0 0 1024 1024" version="1.1" xmlns="http://www.w3.org/2000/svg" p-id="26114" xmlns:xlink="http://www.w3.org/1999/xlink" width="200" height="200"><path d="M428.8 643.2c-9.6 9.6-9.6 32 0 44.8l156.8 156.8c32 32 76.8 54.4 121.6 54.4s89.6-22.4 121.6-54.4 54.4-76.8 54.4-121.6-22.4-89.6-54.4-121.6l-156.8-160c-9.6-9.6-32-9.6-44.8 0-9.6 9.6-9.6 32 0 44.8l156.8 156.8c22.4 22.4 32 44.8 32 76.8s-9.6 54.4-32 76.8-54.4 32-76.8 32-54.4-9.6-76.8-32L473.6 640c-12.8-9.6-35.2-9.6-44.8 3.2z m-268.8-224L316.8 576c9.6 9.6 9.6 9.6 22.4 9.6 9.6 0 9.6 0 22.4-9.6 9.6-9.6 9.6-32 0-44.8l-156.8-156.8c-22.4-22.4-32-54.4-32-76.8s9.6-54.4 32-76.8c44.8-44.8 112-44.8 156.8 0l156.8 156.8c9.6 9.6 32 9.6 44.8 0 9.6-9.6 9.6-32 0-44.8l-156.8-156.8c-67.2-67.2-179.2-67.2-246.4 0-67.2 67.2-67.2 176 0 243.2z m380.8 169.6c9.6 0 9.6 0 22.4-9.6 9.6-9.6 9.6-32 0-44.8l-89.6-89.6c-9.6-9.6-32-9.6-44.8 0-9.6 9.6-9.6 32 0 44.8l89.6 89.6c9.6 9.6 9.6 9.6 22.4 9.6z" fill="#1afa29" p-id="26115"></path></svg>