<?xml version="1.0" standalone="no"?><!DOCTYPE svg PUBLIC "-//W3C//DTD SVG 1.1//EN" "http://www.w3.org/Graphics/SVG/1.1/DTD/svg11.dtd"><svg t="1748749267104" class="icon" viewBox="0 0 1025 1024" version="1.1" xmlns="http://www.w3.org/2000/svg" p-id="52328" xmlns:xlink="http://www.w3.org/1999/xlink" width="200.1953125" height="200"><path d="M0.999122 0.999122v972.545224h0.799297c-0.099912-3.996487 0-7.893063 0.199825-11.389989 0.299737-6.39438 10.290955-6.39438 9.991218 0-0.099912 3.596839-0.299737 7.493414-0.299736 11.389989 38.765928 0.099912 77.531857 0.89921 116.297785 0.999122-8.892185-1.198946-17.784369-2.497805-26.676554-3.896576-5.595082-0.89921-4.196312-10.191043 1.298859-9.791394 16.585423 1.198946 33.170846 2.897453 49.556444 5.694995 0.399649-0.099912 0.699385-0.099912 1.099034-0.099912 8.992097 0.399649 17.984194 1.598595 26.876378 3.19719 5.794907-0.099912 11.689726-0.199824 17.484633-0.199825-1.099034-2.997366 0.299737-6.794029 4.396136-6.694116 10.290955 0.199824 20.182262 2.797541 29.873744 5.694994 0.89921-1.198946 2.29798-1.998244 3.896575-1.998243 9.891306 0.199824 19.18314 2.697629 28.075325 6.394379 4.396136-0.599473 8.792272-0.999122 13.188408-0.999121 5.694995-1.398771 11.489901-2.497805 17.384721-3.297103 3.596839-0.499561 5.994731 2.497805 6.294468 5.295346 12.189287 1.898332 24.278661 4.995609 35.768562 7.893063 5.694995 1.398771 4.0964 9.59157-1.298858 9.791394-4.396136 0.199824-8.892185 0.399649-13.288321 0.699386 1.099034 0.299737 2.29798 0.499561 3.397014 0.799297 5.395258 1.298858 4.296224 10.390867-1.298858 9.791394-4.396136-0.399649-8.69236-0.89921-13.088496-1.598595 1.099034 0.399649 2.098156 0.699385 3.19719 1.099035 4.795785 1.898332 4.695873 10.590692-1.298859 9.791394-0.399649-0.099912-0.89921-0.099912-1.298858-0.199825-0.499561-0.099912-0.999122-0.099912-1.498683-0.199824 0.199824 0.999122 0.099912 2.098156-0.199824 2.997366 5.794907 1.099034 11.489901 2.497805 17.284808 3.496926 0.399649 0.099912 0.699385 0.199824 0.999122 0.299737 11.88955-0.799297 23.679188-1.498683 35.568738-1.998244 23.279539-0.89921 46.559079-0.599473 69.738706-0.399649 47.758025 0.299737 95.51605 1.398771 143.074251 5.894819 1.598595 0.199824 2.897453 0.89921 3.696751 1.998244H1024.099912V0.999122H0.999122z m511.150746 990.229681C247.18275 990.729242 32.771197 776.31769 33.770319 510.85101c0.999122-263.168699 213.112694-477.580252 480.277881-477.080691 263.768173 0.499561 476.880866 214.711289 477.180603 478.279637 0.299737 264.467558-214.811201 479.478583-479.078935 479.178847z" fill="#FFFFFF" p-id="52329"></path><path d="M512.149868 991.228803C247.18275 990.729242 32.771197 776.31769 33.770319 510.85101c0.999122-263.168699 213.112694-477.580252 480.277881-477.080691 263.768173 0.499561 476.880866 214.711289 477.180603 478.279637 0.299737 264.467558-214.811201 479.478583-479.078935 479.178847z m25.877257-741.1486c3.19719-0.399649 5.295346-0.89921 7.393501-0.89921 19.782613-0.399649 32.471461-13.488145 38.166456-31.971899 2.597717-8.192799 4.196312-16.685335 6.294467-25.077959 2.098156-8.392624-0.099912-15.686213-4.995609-22.580154-11.290077-15.786125-37.267246-15.286565-50.25583-2.397893-6.694116 6.694116-14.287443 10.890428-23.579276 11.589814-10.590692 0.699385-21.281296 0.999122-31.871987 1.598595-18.084106 0.999122-25.077959 10.191043-28.674798 25.977168-1.998244 8.892185-4.396136 12.089375-13.388233 13.987706-10.191043 2.198068-20.282174 1.198946-30.17348-1.498682-7.093765-1.998244-13.887794-5.195434-20.481998-8.592448-3.696751-1.898332-3.796663-6.094643-1.298859-8.992097 4.196312-4.895697 11.290077-6.794029 17.484633-4.595961 11.689726 3.996487 16.385599 2.098156 21.680944-9.191921 0.599473-1.298858 1.398771-2.597717 1.998244-3.996487 3.496927-7.29359 8.192799-9.491658 16.285686-7.893063 1.998244 0.399649 4.496048 0.599473 6.094644-0.299737 14.687091-8.292711 29.474095-16.585423 43.761538-25.377695 10.091131-6.194556 19.382964-13.68797 25.177871-24.278662 1.898332-3.397014 4.196312-5.195434 7.693238-6.294467 4.595961-1.398771 10.191043-2.697629 10.490779-8.492536 0.299737-5.49517-4.595961-8.292711-9.092008-10.091131-8.792272-3.496927-17.584545-6.993853-26.676554-9.59157-6.594204-1.898332-13.787882-3.297102-20.182262 1.298859-2.797541 1.998244-5.49517 4.196312-8.192799 6.494292-4.895697 4.196312-9.291833 9.191921-16.285687 9.991218-6.494292 0.699385-11.589814 3.996487-15.286564 9.191922-2.897453 4.196312-5.195434 8.892185-8.092887 13.088496-2.797541 3.996487-5.49517 8.492536-9.391746 11.290077-3.297102 2.397892-5.595082 4.695873-6.594204 8.592448-0.399649 1.398771-1.099034 2.797541-1.898332 3.996488-2.198068 3.596839-5.195434 4.496048-8.792272 1.998243-2.597717-1.798419-4.995609-3.796663-7.493414-5.794907-7.593326-5.894819-13.887794-5.195434-19.782613 2.198069-7.393502 9.191921-10.290955 8.992097-16.685335-0.89921-8.092887-12.588936-12.988584-13.188409-23.579276-2.497805-6.194556 6.294468-13.188409 7.893063-21.381208 5.095522l-17.384721-5.994731c-9.791394-3.19719-18.983315-2.897453-26.876378 4.795784-1.099034 1.099034-2.697629 1.998244-4.096399 2.69763-6.694116 3.297102-13.488145 6.39438-20.182262 9.791394-12.089375 6.194556-23.379452 13.68797-32.671285 23.879012-4.595961 4.995609-6.893941 10.191043-7.29359 17.284809-1.198946 19.382964 0.699385 39.265489-9.59157 57.349595-6.094643 10.590692-10.49078 22.180505-15.98595 33.070933-5.994731 11.989462-13.588057 23.379452-18.483754 35.768563-7.693238 19.782613-4.595961 39.76505 13.488145 53.652844 17.38472 13.288321 25.077959 32.071812 26.876378 53.45302 0.299737 3.097278 0.699385 6.39438 1.998244 9.092009 3.796663 7.793151 7.992975 15.286565 12.189287 22.879891 3.297102 5.894819 8.092887 9.891306 14.587179 12.888672 8.992097 4.196312 17.184896 9.991219 25.677432 15.286565 10.091131 6.294468 16.385599 17.184896 27.975412 21.880768 15.286565 6.194556 30.073568 13.68797 45.260221 20.282174 6.39438 2.697629 7.393502 1.398771 6.294467-5.195433-1.398771-7.693238-6.594204-12.988584-11.88955-17.884282-8.792272-8.292711-18.483755-15.586301-27.076202-23.978925-9.791394-9.59157-17.184896-21.081471-22.680067-33.770319-4.695873-11.090253-8.392624-22.38033-7.79315-34.669528 0.599473-11.290077 4.196312-21.081471 15.686213-25.57752 8.192799-3.19719 16.385599-6.993853 24.978047-7.992975 25.177871-3.097278 39.76505 8.492536 43.162064 31.07269 1.398771 9.59157 7.393502 14.087618 14.087619 18.483754 5.49517 3.596839 10.290955 0.999122 11.88955-5.49517 0.89921-3.397014 1.598595-6.794029 2.29798-10.191043 1.998244-9.891306 3.796663-19.882525 9.59157-28.375061 11.489901-16.685335 22.879891-33.470582 35.16909-49.456532 11.789638-15.186652 24.478486-29.773832 37.367157-44.061274 3.496927-3.896575 7.193677-8.592448 13.588058-9.092009 6.294468-0.499561 12.588936-1.298858 18.783491-2.497805 8.792272-1.798419 17.584545-3.696751 26.077081-6.194556 3.696751-1.099034 8.292711-2.997366 10.191043-5.994731 5.095522-7.793151 7.992975-16.585423 6.39438-26.276905 0-1.898332 0.099912-4.196312 0-5.994731z m26.676553 616.558103h4.196312c11.88955-0.199824 16.285686-4.196312 18.184018-15.886037 0.299737-1.898332 2.29798-3.796663 3.996488-5.095522 4.895697-3.596839 10.790516-6.294468 15.08674-10.49078 9.991219-9.891306 19.382964-20.481998 28.874622-30.872865 9.092009-9.991219 18.583667-19.382964 30.872865-25.677432 3.796663-1.998244 7.992975-4.795785 10.091131-8.392624 9.791394-17.084984 19.18314-34.26988 27.975412-51.854425 4.396136-8.792272 7.193677-18.483755 10.690604-27.775588 2.198068-6.094643 2.597717-12.289199 0.699386-18.583666-5.694995-18.883403-18.983315-29.773832-37.167334-35.768563-5.894819-1.898332-11.88955-3.596839-17.684457-5.694995-21.581032-7.393502-37.966631-20.981559-47.658113-41.763294-4.296224-9.191921-11.090253-12.688848-20.481998-12.688847-7.29359 0-14.687091 0.399649-21.980681-0.199825-6.694116-0.499561-12.688848-2.497805-16.585423-9.191921-7.593326-13.088496-19.482876-16.985072-33.970143-14.986828-8.69236 1.198946-17.484633 2.397892-26.176993 3.097278-12.888672 0.999122-24.078837-2.397892-31.472339-13.987706-1.298858-2.098156-2.29798-4.595961-4.0964-6.094644-8.292711-6.694116-8.592448-10.49078-4.59596-21.381207 2.397892-6.494292 3.896575-13.288321 5.395258-19.982438 0.199824-0.89921-1.898332-3.297102-2.797541-3.19719-8.192799 0.699385-17.284808-1.898332-24.078837 5.395258-0.599473 0.599473-1.898332 0.499561-2.797542 0.699386-14.886916 3.996487-26.276905 12.189287-33.170845 26.576641-6.294468 13.288321-8.192799 27.675676-11.489902 41.663382-2.797541 11.789638-5.894819 23.379452-12.988584 33.470583-2.497805 3.496927-6.494292 7.29359-6.494292 10.890428-0.099912 8.69236 0.599473 17.784369 3.297102 25.877256 3.796663 11.290077 10.091131 21.581032 14.687091 32.671285 3.097278 7.393502 6.094643 15.186652 7.093765 23.079715 0.799297 7.093765 3.496927 12.289199 8.292712 16.88516 3.397014 3.19719 6.893941 6.39438 10.890428 8.69236 10.790516 6.494292 21.581032 13.188409 32.971022 18.583667 13.588057 6.494292 20.58191 16.985072 21.980681 31.372426 1.898332 19.18314 3.19719 38.466192 4.396136 57.649332 0.89921 14.087618 0.799297 28.275149 1.898332 42.362767 0.799297 10.590692 3.496927 20.781735 8.892184 30.273393 2.897453 5.095522 6.694116 9.59157 7.793151 15.985949 1.798419 10.590692 9.791394 13.388233 18.983315 7.893063 12.289199-7.29359 19.18314-23.279539 16.185774-37.367158-0.399649-1.998244-0.399649-4.296224 0.199825-6.194555 2.797541-7.893063 9.092009-12.489023 18.084106-12.289199 8.092887 0.599473 16.285686 1.698507 23.978924 2.29798zM975.142941 506.155137c-0.599473-6.494292-0.399649-12.988584-1.998244-19.083228-3.696751-14.387355-5.595082-28.874622-7.193677-43.661625-1.598595-15.286565-4.196312-30.573129-7.893063-45.460045-3.297102-12.988584-10.990341-23.479364-24.578398-28.075324-1.698507-0.599473-3.996487-0.499561-5.595082 0.199824-7.992975 3.996487-15.886038 8.192799-23.679189 12.588936-5.295346 2.997366-10.990341 5.994731-15.286564 10.191043-6.094643 5.994731-8.092887 13.088496-0.399649 23.179627 4.595961 5.994731 5.694995 12.189287 1.998244 18.983315-2.997366 5.395258-5.894819 10.790516-8.992097 16.085862-3.996487 6.794029-5.794907 13.787882-4.595961 21.680945 0.499561 3.19719 0 6.893941-1.298858 9.791394-6.594204 14.587179-2.697629 28.574885 10.390867 37.566982 6.194556 4.296224 12.588936 8.292711 20.08235 9.59157 8.292711 1.398771 16.685335 3.397014 25.077959 3.19719 5.694995-0.199824 9.092009 1.198946 11.789638 5.595083 0.499561 0.799297 0.999122 1.698507 1.598595 2.497804 4.595961 6.494292 13.787882 9.491658 18.28393 4.99561 3.996487-4.0964 7.992975-9.291833 9.391745-14.687092 2.098156-7.893063 1.998244-16.685335 2.897454-25.177871zM827.772466 179.342375c-2.597717 5.49517-4.496048 9.891306-6.794029 13.987706-2.597717 4.695873-4.296224 4.595961-9.291833 2.597717-5.794907-2.29798-11.989462-3.596839-18.583667-5.49517 0 2.497805-0.299737 3.596839 0 4.396136 2.997366 8.592448 5.694995 17.38472 9.092009 25.777344 7.29359 18.084106 14.886916 36.068299 22.680066 53.952581 2.897453 6.594204 5.49517 14.387355 14.087619 14.886915 4.995609 0.299737 11.789638-0.499561 14.787003-3.69675 7.893063-8.092887 9.092009-18.583667 5.095522-29.374183-1.198946-3.297102-2.997366-6.494292-4.496049-9.491658 3.097278-1.298858 6.094643-2.198068 8.892185-3.696751 4.895697-2.597717 7.193677-6.794029 6.194555-11.88955-0.599473-3.097278-1.298858-6.494292-3.097277-8.792273-6.694116-8.792272-13.68797-17.484633-20.98156-25.777344-5.195434-5.894819-11.190165-11.090253-17.584544-17.38472z" fill="#01DE45" p-id="52330"></path><path d="M538.027125 250.080203c0.099912 1.698507 0 3.996487 0.399648 6.294468 1.598595 9.691482-1.298858 18.483755-6.39438 26.276905-1.898332 2.997366-6.494292 4.895697-10.191043 5.994731-8.592448 2.497805-17.38472 4.496048-26.07708 6.194556-6.194556 1.198946-12.489023 2.098156-18.783491 2.497804-6.39438 0.499561-10.091131 5.195434-13.588058 9.092009-12.888672 14.287443-25.57752 28.77471-37.367158 44.061274-12.389111 15.98595-23.7791 32.771197-35.169089 49.456533-5.794907 8.392624-7.593326 18.483755-9.59157 28.375061-0.699385 3.397014-1.398771 6.794029-2.29798 10.191043-1.698507 6.494292-6.494292 9.092009-11.889551 5.49517-6.694116-4.396136-12.688848-8.892185-14.087618-18.483754-3.397014-22.680066-17.984194-34.169968-43.162064-31.07269-8.492536 0.999122-16.785247 4.895697-24.978047 7.992974-11.489901 4.496048-14.986828 14.287443-15.686213 25.57752-0.699385 12.289199 2.997366 23.579276 7.79315 34.669529 5.395258 12.688848 12.78876 24.178749 22.680066 33.770319 8.592448 8.392624 18.28393 15.786125 27.076203 23.978925 5.295346 4.895697 10.49078 10.191043 11.88955 17.884281 1.198946 6.594204 0.099912 7.893063-6.294468 5.195434-15.186652-6.494292-29.973656-13.987706-45.26022-20.282174-11.589814-4.695873-17.984194-15.586301-27.975412-21.880769-8.392624-5.295346-16.685335-11.090253-25.677432-15.286564-6.39438-2.997366-11.190165-6.893941-14.587179-12.888672-4.196312-7.493414-8.392624-15.08674-12.189287-22.879891-1.298858-2.697629-1.698507-5.994731-1.998244-9.092009-1.898332-21.381208-9.59157-40.164699-26.876378-53.45302-18.084106-13.887794-21.281296-33.870231-13.488145-53.652844 4.895697-12.489023 12.389111-23.7791 18.483754-35.768563 5.49517-10.990341 9.891306-22.480242 15.98595-33.070934 10.290955-18.084106 8.392624-37.966631 9.59157-57.349595 0.399649-7.093765 2.697629-12.289199 7.29359-17.284808 9.291833-10.191043 20.58191-17.584545 32.671285-23.879013 6.694116-3.397014 13.488145-6.494292 20.182261-9.791394 1.498683-0.699385 2.997366-1.498683 4.0964-2.697629 7.893063-7.793151 17.084984-8.092887 26.876378-4.795785 5.794907 1.898332 11.589814 3.996487 17.384721 5.994731 8.192799 2.797541 15.286565 1.099034 21.381207-5.095521 10.49078-10.690604 15.486389-10.091131 23.579277 2.497804 6.39438 9.891306 9.191921 10.091131 16.685335 0.89921 5.994731-7.393502 12.289199-8.092887 19.782613-2.198068 2.497805 1.898332 4.995609 3.896575 7.493414 5.794907 3.596839 2.497805 6.594204 1.598595 8.792272-1.998244 0.799297-1.198946 1.498683-2.597717 1.898332-3.996487 0.999122-3.896575 3.19719-6.194556 6.594204-8.592448 3.796663-2.797541 6.594204-7.29359 9.391745-11.290077 2.897453-4.196312 5.195434-8.892185 8.092888-13.088497 3.696751-5.295346 8.792272-8.492536 15.286564-9.191921 6.993853-0.799297 11.389989-5.794907 16.285686-9.991219 2.697629-2.198068 5.295346-4.496048 8.1928-6.494292 6.39438-4.595961 13.588057-3.19719 20.182261-1.298858 9.092009 2.597717 17.884281 5.994731 26.676554 9.59157 4.496048 1.798419 9.391746 4.595961 9.092009 10.09113-0.299737 5.794907-5.894819 7.093765-10.490779 8.492536-3.596839 1.099034-5.894819 2.897453-7.693239 6.294468-5.894819 10.590692-15.08674 18.084106-25.177871 24.278661-14.387355 8.792272-29.074446 17.084984-43.761537 25.377696-1.598595 0.89921-4.196312 0.699385-6.094644 0.299736-8.092887-1.598595-12.78876 0.599473-16.285686 7.893063-0.699385 1.298858-1.398771 2.597717-1.998244 3.996488-5.295346 11.290077-9.991219 13.288321-21.680944 9.191921-6.194556-2.098156-13.188409-0.299737-17.484633 4.59596-2.497805 2.897453-2.397892 7.093765 1.298858 8.992097 6.594204 3.397014 13.388233 6.594204 20.481999 8.592448 9.791394 2.797541 19.982437 3.696751 30.17348 1.498683 8.992097-1.898332 11.489901-5.095522 13.388233-13.987706 3.496927-15.786125 10.590692-24.978047 28.674797-25.977169 10.590692-0.599473 21.281296-0.89921 31.871988-1.598595 9.391746-0.599473 16.88516-4.895697 23.579276-11.589813 12.988584-12.888672 38.865841-13.388233 50.25583 2.397892 4.895697 6.794029 7.093765 14.18753 4.995609 22.580154-2.098156 8.392624-3.796663 16.88516-6.294468 25.077959-5.694995 18.483755-18.383842 31.572251-38.166455 31.9719-2.497805-0.299737-4.496048 0.199824-7.79315 0.599473zM564.703678 866.638306c-7.593326-0.599473-15.886038-1.698507-24.178749-1.898331-8.992097-0.199824-15.286565 4.296224-18.084106 12.289199-0.699385 1.898332-0.699385 4.196312-0.199824 6.194555 2.997366 14.087618-3.796663 30.073568-16.185774 37.367158-9.191921 5.395258-17.184896 2.697629-18.983316-7.893063-1.099034-6.494292-4.895697-10.990341-7.79315-15.98595-5.395258-9.491658-8.092887-19.682701-8.892185-30.273392-1.099034-14.087618-0.999122-28.275149-1.898331-42.362767-1.198946-19.283052-2.497805-38.466192-4.396136-57.649332-1.398771-14.387355-8.392624-24.878134-21.980681-31.372427-11.389989-5.395258-22.180505-12.089375-32.971022-18.583666-3.996487-2.397892-7.493414-5.49517-10.890428-8.69236-4.795785-4.496048-7.493414-9.791394-8.292712-16.88516-0.89921-7.893063-3.996487-15.686213-7.093765-23.079715-4.595961-10.990341-10.890428-21.381208-14.687092-32.671285-2.697629-8.092887-3.297102-17.184896-3.297102-25.877256 0-3.696751 3.996487-7.393502 6.494292-10.890429 7.093765-10.091131 10.290955-21.680944 12.988585-33.470582 3.297102-13.987706 5.195434-28.375061 11.489901-41.663382 6.794029-14.487267 18.184018-22.580154 33.170846-26.576642 0.999122-0.299737 2.29798-0.099912 2.797541-0.699385 6.794029-7.29359 15.786125-4.695873 24.078837-5.395258 0.89921-0.099912 2.997366 2.397892 2.797541 3.19719-1.498683 6.694116-3.097278 13.488145-5.395258 19.982437-3.996487 10.990341-3.696751 14.787004 4.595961 21.381208 1.798419 1.498683 2.797541 3.996487 4.0964 6.094644 7.393502 11.589814 18.583667 14.986828 31.472338 13.987706 8.792272-0.699385 17.484633-1.898332 26.176993-3.097278 14.487267-1.898332 26.376817 1.998244 33.970144 14.986828 3.896575 6.594204 9.891306 8.69236 16.585423 9.191921 7.29359 0.499561 14.687091 0.099912 21.980681 0.199824 9.491658 0 16.185774 3.496927 20.481998 12.688848 9.691482 20.781735 26.077081 34.369792 47.658113 41.763294 5.894819 1.998244 11.789638 3.696751 17.684457 5.694995 18.084106 5.894819 31.372427 16.88516 37.167333 35.768563 1.898332 6.294468 1.598595 12.489023-0.699385 18.583666-3.397014 9.291833-6.294468 18.883403-10.690604 27.775588-8.792272 17.584545-18.28393 34.769441-27.975412 51.854425-1.998244 3.596839-6.194556 6.39438-10.091131 8.392624-12.289199 6.294468-21.680944 15.686213-30.872866 25.677432-9.491658 10.390867-18.883403 20.981559-28.874622 30.872865-4.296224 4.196312-10.091131 6.893941-15.08674 10.49078-1.698507 1.298858-3.696751 3.19719-3.996487 5.095521-1.998244 11.689726-6.294468 15.686213-18.184018 15.886038-0.999122-0.399649-2.198068-0.399649-3.996488-0.399649zM975.142941 506.155137c-0.89921 8.392624-0.799297 17.184896-2.897454 25.477608-1.398771 5.395258-5.395258 10.590692-9.391745 14.687091-4.396136 4.496048-13.68797 1.498683-18.28393-4.995609-0.599473-0.799297-0.999122-1.698507-1.598595-2.497805-2.697629-4.396136-6.094643-5.794907-11.789638-5.595082-8.292711 0.199824-16.685335-1.798419-25.077959-3.19719-7.593326-1.298858-13.887794-5.295346-20.08235-9.59157-13.188409-9.092009-16.985072-22.979803-10.390867-37.566982 1.298858-2.897453 1.798419-6.694116 1.298858-9.791395-1.198946-7.992975 0.699385-14.986828 4.595961-21.680944 3.097278-5.295346 5.994731-10.690604 8.992097-16.085862 3.796663-6.794029 2.597717-12.988584-1.998244-18.983316-7.693238-10.091131-5.694995-17.284808 0.399649-23.179627 4.296224-4.196312 9.991219-7.093765 15.286564-10.191043 7.793151-4.396136 15.686213-8.592448 23.679189-12.588935 1.498683-0.799297 3.896575-0.799297 5.595082-0.199825 13.588057 4.595961 21.281296 15.08674 24.578398 28.075325 3.696751 14.886916 6.294468 30.17348 7.893063 45.460044 1.598595 14.687091 3.397014 29.274271 7.193677 43.661626 1.598595 5.794907 1.398771 12.289199 1.998244 18.783491zM827.772466 179.342375c6.39438 6.194556 12.389111 11.489901 17.684457 17.38472 7.29359 8.292711 14.287443 16.985072 20.981559 25.777344 1.798419 2.397892 2.497805 5.794907 3.097278 8.792273 0.999122 5.095522-1.298858 9.291833-6.194556 11.88955-2.797541 1.498683-5.794907 2.397892-8.892185 3.696751 1.498683 3.097278 3.297102 6.194556 4.496049 9.491658 3.996487 10.690604 2.797541 21.281296-5.095522 29.374183-3.097278 3.097278-9.791394 3.896575-14.787003 3.69675-8.592448-0.499561-11.290077-8.292711-14.087619-14.886915-7.793151-17.884281-15.286565-35.868475-22.680066-53.952581-3.397014-8.492536-6.194556-17.184896-9.092009-25.777344-0.299737-0.89921 0-1.898332 0-4.396136 6.594204 1.898332 12.78876 3.19719 18.583667 5.49517 4.995609 1.998244 6.694116 2.198068 9.291833-2.597717 2.098156-4.0964 3.996487-8.492536 6.694117-13.987706z" fill="#FFFFFF" p-id="52331"></path></svg>